<svg xmlns="http://www.w3.org/2000/svg" viewBox="-962.31 -1109.12 2877.24 2654.48" width="2877.24" height="2654.48"><style>.gensetcanopysmallilo,.gensetcanopysmallilp,.gensetcanopysmallild{fill:none;stroke-linejoin:round;stroke-linecap:round}.gensetcanopysmallilo{stroke:#5f6975;stroke-width:8.63}.gensetcanopysmallilp{stroke:#5f6975;stroke-width:5.75}.gensetcanopysmallild{stroke:#78828f;stroke-width:4.03}.gensetcanopysmallilsh1,.gensetcanopysmallilsh2{fill:#0b1220;stroke:none}.gensetcanopysmallilsh1{opacity:.10}.gensetcanopysmallilsh2{opacity:.05}.gensetcanopysmallilm-blackst0{fill:url(#gensetcanopysmallilgblackst0);stroke:none}.gensetcanopysmallilm-blackst2{fill:url(#gensetcanopysmallilgblackst2);stroke:none}.gensetcanopysmallilm-blackst1{fill:url(#gensetcanopysmallilgblackst1);stroke:none}.gensetcanopysmallilm-vent1x{fill:#666f79;stroke:none}.gensetcanopysmallilm-vent0x{fill:#78818b;stroke:none}.gensetcanopysmallilm-canopy0{fill:url(#gensetcanopysmallilgcanopy0);stroke:none}.gensetcanopysmallilm-canopy2{fill:url(#gensetcanopysmallilgcanopy2);stroke:none}.gensetcanopysmallilm-canopy1{fill:url(#gensetcanopysmallilgcanopy1);stroke:none}.gensetcanopysmallilm-panel1x{fill:#dee3e8;stroke:none}.gensetcanopysmallilm-lcd1{fill:url(#gensetcanopysmallilglcd1);stroke:none}.gensetcanopysmallilm-blackst1x{fill:#282e34;stroke:none}.gensetcanopysmallilm-estop1{fill:url(#gensetcanopysmallilgestop1);stroke:none}.gensetcanopysmallilm-decal1x{fill:#e4bc2e;stroke:none}.gensetcanopysmallilm-vent1{fill:url(#gensetcanopysmallilgvent1);stroke:none}.gensetcanopysmallilm-panel2x{fill:#bfc6ce;stroke:none}.gensetcanopysmallilm-panel0x{fill:#f2f4f6;stroke:none}.gensetcanopysmallilm-vent2{fill:url(#gensetcanopysmallilgvent2);stroke:none}.gensetcanopysmallilm-blackst2x{fill:#1c2127;stroke:none}.gensetcanopysmallilm-vent2x{fill:#555d66;stroke:none}.gensetcanopysmallilm-ground1x{fill:#ffffff;stroke:none}</style><defs><linearGradient id="gensetcanopysmallilgblackst0" x1="0" y1="0" x2="0.7" y2="1"><stop offset="0" stop-color="#53595f"/><stop offset="1" stop-color="#32383e"/></linearGradient><linearGradient id="gensetcanopysmallilgblackst2" x1="0" y1="0" x2="0.7" y2="1"><stop offset="0" stop-color="#3a3e43"/><stop offset="1" stop-color="#181d22"/></linearGradient><linearGradient id="gensetcanopysmallilgblackst1" x1="0" y1="0" x2="0.7" y2="1"><stop offset="0" stop-color="#44494e"/><stop offset="1" stop-color="#23282d"/></linearGradient><linearGradient id="gensetcanopysmallilgcanopy0" x1="0" y1="0" x2="0.7" y2="1"><stop offset="0" stop-color="#f0f3f5"/><stop offset="1" stop-color="#cfd2d4"/></linearGradient><linearGradient id="gensetcanopysmallilgcanopy2" x1="0" y1="0" x2="0.7" y2="1"><stop offset="0" stop-color="#bac2cb"/><stop offset="1" stop-color="#99a1aa"/></linearGradient><linearGradient id="gensetcanopysmallilgcanopy1" x1="0" y1="0" x2="0.7" y2="1"><stop offset="0" stop-color="#dadfe5"/><stop offset="1" stop-color="#b8bec4"/></linearGradient><linearGradient id="gensetcanopysmallilglcd1" x1="0" y1="0" x2="0.7" y2="1"><stop offset="0" stop-color="#549dd8"/><stop offset="1" stop-color="#327cb7"/></linearGradient><linearGradient id="gensetcanopysmallilgestop1" x1="0" y1="0" x2="0.7" y2="1"><stop offset="0" stop-color="#cd5f54"/><stop offset="1" stop-color="#ac3e32"/></linearGradient><linearGradient id="gensetcanopysmallilgvent1" x1="0" y1="0" x2="0.7" y2="1"><stop offset="0" stop-color="#7a828a"/><stop offset="1" stop-color="#596169"/></linearGradient><linearGradient id="gensetcanopysmallilgvent2" x1="0" y1="0" x2="0.7" y2="1"><stop offset="0" stop-color="#6b727a"/><stop offset="1" stop-color="#4a5159"/></linearGradient></defs><path class="gensetcanopysmallilsh2" d="M-71.45 -101.25 L1820.82 991.25 L1024.08 1451.25 L-868.19 358.75 Z"/><path class="gensetcanopysmallilsh1" d="M-23.82 -33.75 L1703.9 963.75 L976.44 1383.75 L-751.28 386.25 Z"/><path class="gensetcanopysmallilo gensetcanopysmallilm-blackst0" fill-rule="evenodd" d="M0 -160 L1645.45 790 L952.63 1190 L-692.82 240 Z M0 -115 L1567.51 790 L952.63 1145 L-614.88 240 Z"/><path class="gensetcanopysmallilo gensetcanopysmallilm-blackst2" d="M1645.45 950 L952.63 1350 L952.63 1190 L1645.45 790 Z"/><path class="gensetcanopysmallilo gensetcanopysmallilm-blackst1" d="M-692.82 400 L952.63 1350 L952.63 1190 L-692.82 240 Z"/><path class="gensetcanopysmallild gensetcanopysmallilm-vent1x" d="M-413.09 519.9 L-199.19 643.4 L-199.19 573 L-413.09 449.5 Z"/><path class="gensetcanopysmallild gensetcanopysmallilm-vent1x" d="M343.81 956.9 L557.72 1080.4 L557.72 1010 L343.81 886.5 Z"/><path class="gensetcanopysmallild gensetcanopysmallilm-vent0x" d="M-269.07 84.65 L-271.82 86.04 L-274.86 87.21 L-278.13 88.14 L-281.59 88.82 L-285.17 89.23 L-288.82 89.37 L-292.46 89.23 L-296.05 88.82 L-299.51 88.14 L-302.78 87.21 L-305.82 86.04 L-308.56 84.65 L-310.97 83.06 L-313 81.31 L-314.62 79.42 L-315.79 77.42 L-316.5 75.35 L-316.74 73.25 L-316.5 71.15 L-315.79 69.08 L-314.62 67.08 L-313 65.19 L-310.97 63.44 L-308.56 61.85 L-305.82 60.46 L-302.78 59.29 L-299.51 58.36 L-296.05 57.68 L-292.46 57.27 L-288.82 57.13 L-285.17 57.27 L-281.59 57.68 L-278.13 58.36 L-274.86 59.29 L-271.82 60.46 L-269.07 61.85 L-266.67 63.44 L-264.64 65.19 L-263.02 67.08 L-261.85 69.08 L-261.13 71.15 L-260.9 73.25 L-261.13 75.35 L-261.85 77.42 L-263.02 79.42 L-264.64 81.31 L-266.67 83.06 Z"/><path class="gensetcanopysmallild gensetcanopysmallilm-vent0x" d="M1261.19 968.15 L1258.45 969.54 L1255.41 970.71 L1252.13 971.64 L1248.67 972.32 L1245.09 972.73 L1241.45 972.87 L1237.8 972.73 L1234.22 972.32 L1230.76 971.64 L1227.49 970.71 L1224.45 969.54 L1221.7 968.15 L1219.29 966.56 L1217.26 964.81 L1215.65 962.92 L1214.47 960.92 L1213.76 958.85 L1213.52 956.75 L1213.76 954.65 L1214.47 952.58 L1215.65 950.58 L1217.26 948.69 L1219.29 946.94 L1221.7 945.35 L1224.45 943.96 L1227.49 942.79 L1230.76 941.86 L1234.22 941.18 L1237.8 940.77 L1241.45 940.63 L1245.09 940.77 L1248.67 941.18 L1252.13 941.86 L1255.41 942.79 L1258.45 943.96 L1261.19 945.35 L1263.6 946.94 L1265.63 948.69 L1267.25 950.58 L1268.42 952.58 L1269.13 954.65 L1269.37 956.75 L1269.13 958.85 L1268.42 960.92 L1267.25 962.92 L1265.63 964.81 L1263.6 966.56 Z"/><path class="gensetcanopysmallilo gensetcanopysmallilm-canopy0" fill-rule="evenodd" d="M0 -975 L1567.51 -70 L952.63 285 L-614.88 -620 Z M0 -945 L1515.54 -70 L952.63 255 L-562.92 -620 Z"/><path class="gensetcanopysmallilo gensetcanopysmallilm-canopy2" d="M1567.51 790 L952.63 1145 L952.63 285 L1567.51 -70 Z"/><path class="gensetcanopysmallilo gensetcanopysmallilm-canopy1" d="M-614.88 240 L952.63 1145 L952.63 285 L-614.88 -620 Z"/><path class="gensetcanopysmallild gensetcanopysmallilm-panel1x" d="M-560.02 -89.53 L-136.79 154.83 L-136.79 -223.57 L-560.02 -467.92 Z"/><path class="gensetcanopysmallild gensetcanopysmallilm-lcd1" d="M-528.67 -277.83 L-332.73 -164.7 L-332.73 -293.7 L-528.67 -406.83 Z"/><path class="gensetcanopysmallild gensetcanopysmallilm-blackst1x" d="M-523.96 -137.51 L-489.48 -117.6 L-489.48 -164.9 L-523.96 -184.81 Z"/><path class="gensetcanopysmallild gensetcanopysmallilm-blackst1x" d="M-473.8 -108.55 L-439.32 -88.64 L-439.32 -135.94 L-473.8 -155.85 Z"/><path class="gensetcanopysmallild gensetcanopysmallilm-blackst1x" d="M-423.64 -79.59 L-389.16 -59.68 L-389.16 -106.98 L-423.64 -126.89 Z"/><path class="gensetcanopysmallild gensetcanopysmallilm-blackst1x" d="M-373.48 -50.63 L-339 -30.72 L-339 -78.02 L-373.48 -97.93 Z"/><path class="gensetcanopysmallild gensetcanopysmallilm-estop1" d="M-208.89 -162 L-209.18 -167.13 L-210.02 -172.49 L-211.4 -178 L-213.3 -183.56 L-215.7 -189.07 L-218.54 -194.45 L-221.77 -199.6 L-225.35 -204.43 L-229.21 -208.85 L-233.29 -212.81 L-237.52 -216.21 L-241.81 -219.02 L-246.11 -221.18 L-250.33 -222.64 L-254.41 -223.4 L-258.27 -223.43 L-261.85 -222.73 L-265.09 -221.33 L-267.93 -219.23 L-270.32 -216.47 L-272.22 -213.11 L-273.61 -209.21 L-274.45 -204.81 L-274.73 -200.01 L-274.45 -194.89 L-273.61 -189.53 L-272.22 -184.02 L-270.32 -178.46 L-267.93 -172.95 L-265.09 -167.57 L-261.85 -162.42 L-258.27 -157.59 L-254.41 -153.17 L-250.33 -149.21 L-246.11 -145.81 L-241.81 -143 L-237.52 -140.84 L-233.29 -139.38 L-229.21 -138.62 L-225.35 -138.59 L-221.77 -139.29 L-218.54 -140.69 L-215.7 -142.79 L-213.3 -145.55 L-211.4 -148.91 L-210.02 -152.81 L-209.18 -157.21 Z"/><path class="gensetcanopysmallild gensetcanopysmallilm-decal1x" d="M-262.19 30.83 L-207.33 62.5 L-207.33 -2 L-262.19 -33.67 Z"/><path class="gensetcanopysmallilp gensetcanopysmallilm-canopy1" d="M-97.6 452.65 L372.65 724.15 L372.65 27.55 L-97.6 -243.95 Z"/><path class="gensetcanopysmallild gensetcanopysmallilm-blackst1x" d="M-97.6 258.76 L-81.14 268.27 L-81.14 191.64 L-97.6 182.14 Z"/><path class="gensetcanopysmallild gensetcanopysmallilm-blackst1x" d="M-97.6 26.56 L-81.14 36.07 L-81.14 -40.56 L-97.6 -50.06 Z"/><path class="gensetcanopysmallild gensetcanopysmallilm-blackst1" d="M344.44 387.42 L358.54 395.57 L358.54 325.91 L344.44 317.76 Z"/><path class="gensetcanopysmallild gensetcanopysmallilm-vent1x" d="M-58.41 415.07 L325.63 636.8 L325.63 370.2 L-58.41 148.47 Z"/><path class="gensetcanopysmallild gensetcanopysmallilm-blackst1x" d="M-48.54 406.11 L-13.43 426.39 L-13.43 389.06 L-48.54 368.79 Z"/><path class="gensetcanopysmallild gensetcanopysmallilm-blackst1x" d="M-48.54 339.46 L-13.43 359.74 L-13.43 322.41 L-48.54 302.14 Z"/><path class="gensetcanopysmallild gensetcanopysmallilm-blackst1x" d="M-48.54 272.81 L-13.43 293.09 L-13.43 255.76 L-48.54 235.49 Z"/><path class="gensetcanopysmallild gensetcanopysmallilm-blackst1x" d="M-48.54 206.16 L-13.43 226.44 L-13.43 189.11 L-48.54 168.84 Z"/><path class="gensetcanopysmallild gensetcanopysmallilm-blackst1x" d="M6.32 437.79 L41.44 458.06 L41.44 420.74 L6.32 400.46 Z"/><path class="gensetcanopysmallild gensetcanopysmallilm-blackst1x" d="M6.32 371.14 L41.44 391.41 L41.44 354.09 L6.32 333.81 Z"/><path class="gensetcanopysmallild gensetcanopysmallilm-blackst1x" d="M6.32 304.49 L41.44 324.76 L41.44 287.44 L6.32 267.16 Z"/><path class="gensetcanopysmallild gensetcanopysmallilm-blackst1x" d="M6.32 237.84 L41.44 258.11 L41.44 220.79 L6.32 200.51 Z"/><path class="gensetcanopysmallild gensetcanopysmallilm-blackst1x" d="M61.19 469.46 L96.3 489.74 L96.3 452.41 L61.19 432.14 Z"/><path class="gensetcanopysmallild gensetcanopysmallilm-blackst1x" d="M61.19 402.81 L96.3 423.09 L96.3 385.76 L61.19 365.49 Z"/><path class="gensetcanopysmallild gensetcanopysmallilm-blackst1x" d="M61.19 336.16 L96.3 356.44 L96.3 319.11 L61.19 298.84 Z"/><path class="gensetcanopysmallild gensetcanopysmallilm-blackst1x" d="M61.19 269.51 L96.3 289.79 L96.3 252.46 L61.19 232.19 Z"/><path class="gensetcanopysmallild gensetcanopysmallilm-blackst1x" d="M116.05 501.14 L151.16 521.41 L151.16 484.09 L116.05 463.81 Z"/><path class="gensetcanopysmallild gensetcanopysmallilm-blackst1x" d="M116.05 434.49 L151.16 454.76 L151.16 417.44 L116.05 397.16 Z"/><path class="gensetcanopysmallild gensetcanopysmallilm-blackst1x" d="M116.05 367.84 L151.16 388.11 L151.16 350.79 L116.05 330.51 Z"/><path class="gensetcanopysmallild gensetcanopysmallilm-blackst1x" d="M116.05 301.19 L151.16 321.46 L151.16 284.14 L116.05 263.86 Z"/><path class="gensetcanopysmallild gensetcanopysmallilm-blackst1x" d="M170.91 532.81 L206.02 553.09 L206.02 515.76 L170.91 495.49 Z"/><path class="gensetcanopysmallild gensetcanopysmallilm-blackst1x" d="M170.91 466.16 L206.02 486.44 L206.02 449.11 L170.91 428.84 Z"/><path class="gensetcanopysmallild gensetcanopysmallilm-blackst1x" d="M170.91 399.51 L206.02 419.79 L206.02 382.46 L170.91 362.19 Z"/><path class="gensetcanopysmallild gensetcanopysmallilm-blackst1x" d="M170.91 332.86 L206.02 353.14 L206.02 315.81 L170.91 295.54 Z"/><path class="gensetcanopysmallild gensetcanopysmallilm-blackst1x" d="M225.78 564.49 L260.89 584.76 L260.89 547.44 L225.78 527.16 Z"/><path class="gensetcanopysmallild gensetcanopysmallilm-blackst1x" d="M225.78 497.84 L260.89 518.11 L260.89 480.79 L225.78 460.51 Z"/><path class="gensetcanopysmallild gensetcanopysmallilm-blackst1x" d="M225.78 431.19 L260.89 451.46 L260.89 414.14 L225.78 393.86 Z"/><path class="gensetcanopysmallild gensetcanopysmallilm-blackst1x" d="M225.78 364.54 L260.89 384.81 L260.89 347.49 L225.78 327.21 Z"/><path class="gensetcanopysmallild gensetcanopysmallilm-blackst1x" d="M280.64 596.16 L315.75 616.44 L315.75 579.11 L280.64 558.84 Z"/><path class="gensetcanopysmallild gensetcanopysmallilm-blackst1x" d="M280.64 529.51 L315.75 549.79 L315.75 512.46 L280.64 492.19 Z"/><path class="gensetcanopysmallild gensetcanopysmallilm-blackst1x" d="M280.64 462.86 L315.75 483.14 L315.75 445.81 L280.64 425.54 Z"/><path class="gensetcanopysmallild gensetcanopysmallilm-blackst1x" d="M280.64 396.21 L315.75 416.49 L315.75 379.16 L280.64 358.89 Z"/><path class="gensetcanopysmallilp gensetcanopysmallilm-canopy1" d="M411.84 746.77 L882.09 1018.28 L882.09 321.68 L411.84 50.17 Z"/><path class="gensetcanopysmallild gensetcanopysmallilm-blackst1x" d="M411.84 552.89 L428.3 562.39 L428.3 485.76 L411.84 476.26 Z"/><path class="gensetcanopysmallild gensetcanopysmallilm-blackst1x" d="M411.84 320.69 L428.3 330.19 L428.3 253.56 L411.84 244.06 Z"/><path class="gensetcanopysmallild gensetcanopysmallilm-blackst1" d="M853.88 681.55 L867.98 689.69 L867.98 620.03 L853.88 611.89 Z"/><path class="gensetcanopysmallilp gensetcanopysmallilm-vent1" d="M458.86 386.93 L842.9 608.65 L842.9 333.45 L458.86 111.73 Z"/><path class="gensetcanopysmallild gensetcanopysmallilm-blackst1x" d="M470.38 381.78 L831.38 590.2 L831.38 572.91 L470.38 364.48 Z"/><path class="gensetcanopysmallild gensetcanopysmallilm-blackst1x" d="M470.38 342.47 L831.38 550.89 L831.38 533.59 L470.38 325.17 Z"/><path class="gensetcanopysmallild gensetcanopysmallilm-blackst1x" d="M470.38 303.15 L831.38 511.58 L831.38 494.28 L470.38 285.86 Z"/><path class="gensetcanopysmallild gensetcanopysmallilm-blackst1x" d="M470.38 263.84 L831.38 472.26 L831.38 454.96 L470.38 246.54 Z"/><path class="gensetcanopysmallild gensetcanopysmallilm-blackst1x" d="M470.38 224.53 L831.38 432.95 L831.38 415.65 L470.38 207.23 Z"/><path class="gensetcanopysmallild gensetcanopysmallilm-blackst1x" d="M470.38 185.21 L831.38 393.63 L831.38 376.33 L470.38 167.91 Z"/><path class="gensetcanopysmallild gensetcanopysmallilm-blackst1x" d="M470.38 145.9 L831.38 354.32 L831.38 337.02 L470.38 128.6 Z"/><path class="gensetcanopysmallild gensetcanopysmallilm-panel1x" d="M427.51 691.33 L725.34 863.28 L725.34 764.38 L427.51 592.43 Z"/><g transform="matrix(0.3528 0.2037 0 0.4074 391.3744 403.0649)"><path class="gensetcanopysmallilm-panel2x" d="M877.99,526.45c3.55-41.95-53.55-60.81-75.67-25.07-16.83,27.2,2.12,61.69,33.79,62.06v28.97c0,.35-1.15,1.15-1.74,1.07-24.48-1.35-47.05-14.38-59.35-35.61-28.44-49.08,10.19-108.58,65.66-106.15,38.03,1.67,68.57,33.45,68.78,71.59,0,1.27.04,2.38-1.11,3.14h-30.36Z"/><polygon class="gensetcanopysmallilm-panel2x" points="747.46 450.36 747.46 589.62 746.41 590.66 716.05 590.66 716.05 450.36 747.46 450.36"/><path class="gensetcanopysmallilm-panel2x" d="M240.4,506.5c9.02,7.01,16.39,18.6,17.67,30.14,1.45,13.04.98,38.16.1,51.61-2.9,44.42-60.12,55.8-84.37,20.79-.98-1.41-3.61-4.9-2.59-6.51l8.7-4.85c10.37,23.19,43.41,29.31,59.96,9.29,8.69-10.51,8.26-22.94,7.1-35.85-7.87,8.09-16.77,14.04-28.35,15.27-44.84,4.75-68.17-51.62-33.08-79.85,15.07-12.12,39.73-11.8,54.86-.05ZM234.85,514.84c-29.27-20.99-67.37,8.49-51.99,41.87,15.66,33.99,68.34,21.07,64.11-20.83-.59-5.83-7.33-17.6-12.12-21.03Z"/><path class="gensetcanopysmallilm-panel2x" d="M630.89,543.9h-75.39c-1.02,15.46,12.1,30.71,27.58,32.1,15.78,1.41,27.7-5.58,35.7-18.78l9.31,3.44c-6.1,14.64-20.32,24.35-36.04,25.73-45.88,4.02-66.01-53.87-30.5-80.76,20.05-15.18,52.92-8.62,64.36,14.28.84,1.69,4.97,12.7,4.97,13.87v10.12ZM556.2,534.12h59.68c.34,0,3.28-.53,3.06-1.65-2.4-12.63-14.75-23.23-27.46-24.2-10.07-.77-15.64.45-23.63,6.44-6.06,4.55-10.74,11.86-11.65,19.41Z"/><path class="gensetcanopysmallilm-panel2x" d="M286.07,543.9c-.74,5.82.77,10.09,3.36,15.14,12.22,23.82,48.25,22.15,59.21-1.93l10.03,3.56c-14.88,33.56-63.03,35.02-79.7,1.86-12.62-25.11.45-56.9,28.04-63.65,29.81-7.3,55.96,14.62,54.45,45.03h-75.39ZM286.76,534.12h61.08c.1,0,1.71-.73,1.74-1.11-5.89-27.09-41.47-34.08-57.81-11.68-1.28,1.75-6.52,11.27-5.01,12.79Z"/><path class="gensetcanopysmallilm-panel2x" d="M441.72,585.78v-53.4c0-6.07-6.47-15.19-11.23-18.79-12.41-9.38-31.17-5.45-38.7,7.94-8.12,14.43-1.76,44.65-3.78,61.83-.12,1.02-.09,1.79-1.08,2.41h-10.12v-54.79c0-1.99,2.52-8.97,3.48-11.18,14.62-33.7,66.03-27.69,71.79,9.9,1.78,11.65,2.23,41.94.85,53.67-.12,1.02-.09,1.79-1.08,2.41h-10.12Z"/><path class="gensetcanopysmallilm-panel2x" d="M477.2,563.57c6.23,13.25,32.28,17.59,40.91,5.4,2.91-4.11,2.48-10.6-.97-14.29-9.88-10.57-39.57-7.73-45.44-25.06-10.73-31.72,37.73-42.42,54.84-19.94,4.46,5.85-2.75,6.05-6.3,9.67-5.67-7.92-13.79-11.95-23.72-11.04-9.31.85-19.88,9.68-12.92,19.18,9.08,12.38,45.01,7.51,47.45,31.42,2.93,28.65-34.83,33.99-53.69,20.88-1.93-1.34-10.61-8.57-9.52-10.75,1.53-1.63,7.29-6.67,9.34-5.47Z"/><path class="gensetcanopysmallilm-panel2x" d="M861.5,531.77c16.5,17.35,33.56,34.18,49.94,51.66l-18.55,18.29-55.31-57.62c-.33-.87.14-1.33.58-1.98,3.61-5.36,13.01-10.88,17.24-16.32,1.45-.26,5,4.81,6.11,5.97Z"/><path class="gensetcanopysmallilm-panel2x" d="M658.46,465.02c.54.17,1.06,1.14,1.08,1.76l-.39,32.44c1.42,2.92,9.1.72,11.84.66,3.51-.08,6.95,0,10.39.71,1.62,3.31,1.31,7.02.44,10.47-7.37-1.26-14.8.7-22.31.02-.11,2.42.18,4.9,0,7.33-.87,11.56-2.09,31.09-.38,42.27,2.16,14.08,12.48,18.41,25.07,12.65,1.87.35,3.45,6.69,3.82,8.54-11.95,8.34-29.81,5.52-36.56-7.94-1.22-2.42-3.81-10.53-3.81-12.94v-95.98h10.82Z"/></g><g transform="matrix(0.3528 0.2037 0 0.4074 386.4167 398.1073)"><path class="gensetcanopysmallilm-panel0x" d="M877.99,526.45c3.55-41.95-53.55-60.81-75.67-25.07-16.83,27.2,2.12,61.69,33.79,62.06v28.97c0,.35-1.15,1.15-1.74,1.07-24.48-1.35-47.05-14.38-59.35-35.61-28.44-49.08,10.19-108.58,65.66-106.15,38.03,1.67,68.57,33.45,68.78,71.59,0,1.27.04,2.38-1.11,3.14h-30.36Z"/><polygon class="gensetcanopysmallilm-panel0x" points="747.46 450.36 747.46 589.62 746.41 590.66 716.05 590.66 716.05 450.36 747.46 450.36"/><path class="gensetcanopysmallilm-panel0x" d="M240.4,506.5c9.02,7.01,16.39,18.6,17.67,30.14,1.45,13.04.98,38.16.1,51.61-2.9,44.42-60.12,55.8-84.37,20.79-.98-1.41-3.61-4.9-2.59-6.51l8.7-4.85c10.37,23.19,43.41,29.31,59.96,9.29,8.69-10.51,8.26-22.94,7.1-35.85-7.87,8.09-16.77,14.04-28.35,15.27-44.84,4.75-68.17-51.62-33.08-79.85,15.07-12.12,39.73-11.8,54.86-.05ZM234.85,514.84c-29.27-20.99-67.37,8.49-51.99,41.87,15.66,33.99,68.34,21.07,64.11-20.83-.59-5.83-7.33-17.6-12.12-21.03Z"/><path class="gensetcanopysmallilm-panel0x" d="M630.89,543.9h-75.39c-1.02,15.46,12.1,30.71,27.58,32.1,15.78,1.41,27.7-5.58,35.7-18.78l9.31,3.44c-6.1,14.64-20.32,24.35-36.04,25.73-45.88,4.02-66.01-53.87-30.5-80.76,20.05-15.18,52.92-8.62,64.36,14.28.84,1.69,4.97,12.7,4.97,13.87v10.12ZM556.2,534.12h59.68c.34,0,3.28-.53,3.06-1.65-2.4-12.63-14.75-23.23-27.46-24.2-10.07-.77-15.64.45-23.63,6.44-6.06,4.55-10.74,11.86-11.65,19.41Z"/><path class="gensetcanopysmallilm-panel0x" d="M286.07,543.9c-.74,5.82.77,10.09,3.36,15.14,12.22,23.82,48.25,22.15,59.21-1.93l10.03,3.56c-14.88,33.56-63.03,35.02-79.7,1.86-12.62-25.11.45-56.9,28.04-63.65,29.81-7.3,55.96,14.62,54.45,45.03h-75.39ZM286.76,534.12h61.08c.1,0,1.71-.73,1.74-1.11-5.89-27.09-41.47-34.08-57.81-11.68-1.28,1.75-6.52,11.27-5.01,12.79Z"/><path class="gensetcanopysmallilm-panel0x" d="M441.72,585.78v-53.4c0-6.07-6.47-15.19-11.23-18.79-12.41-9.38-31.17-5.45-38.7,7.94-8.12,14.43-1.76,44.65-3.78,61.83-.12,1.02-.09,1.79-1.08,2.41h-10.12v-54.79c0-1.99,2.52-8.97,3.48-11.18,14.62-33.7,66.03-27.69,71.79,9.9,1.78,11.65,2.23,41.94.85,53.67-.12,1.02-.09,1.79-1.08,2.41h-10.12Z"/><path class="gensetcanopysmallilm-panel0x" d="M477.2,563.57c6.23,13.25,32.28,17.59,40.91,5.4,2.91-4.11,2.48-10.6-.97-14.29-9.88-10.57-39.57-7.73-45.44-25.06-10.73-31.72,37.73-42.42,54.84-19.94,4.46,5.85-2.75,6.05-6.3,9.67-5.67-7.92-13.79-11.95-23.72-11.04-9.31.85-19.88,9.68-12.92,19.18,9.08,12.38,45.01,7.51,47.45,31.42,2.93,28.65-34.83,33.99-53.69,20.88-1.93-1.34-10.61-8.57-9.52-10.75,1.53-1.63,7.29-6.67,9.34-5.47Z"/><path class="gensetcanopysmallilm-panel0x" d="M861.5,531.77c16.5,17.35,33.56,34.18,49.94,51.66l-18.55,18.29-55.31-57.62c-.33-.87.14-1.33.58-1.98,3.61-5.36,13.01-10.88,17.24-16.32,1.45-.26,5,4.81,6.11,5.97Z"/><path class="gensetcanopysmallilm-panel0x" d="M658.46,465.02c.54.17,1.06,1.14,1.08,1.76l-.39,32.44c1.42,2.92,9.1.72,11.84.66,3.51-.08,6.95,0,10.39.71,1.62,3.31,1.31,7.02.44,10.47-7.37-1.26-14.8.7-22.31.02-.11,2.42.18,4.9,0,7.33-.87,11.56-2.09,31.09-.38,42.27,2.16,14.08,12.48,18.41,25.07,12.65,1.87.35,3.45,6.69,3.82,8.54-11.95,8.34-29.81,5.52-36.56-7.94-1.22-2.42-3.81-10.53-3.81-12.94v-95.98h10.82Z"/></g><g transform="matrix(0.3528 0.2037 0 0.4074 388.8956 400.5861)"><path class="gensetcanopysmallilm-panel1x" d="M877.99,526.45c3.55-41.95-53.55-60.81-75.67-25.07-16.83,27.2,2.12,61.69,33.79,62.06v28.97c0,.35-1.15,1.15-1.74,1.07-24.48-1.35-47.05-14.38-59.35-35.61-28.44-49.08,10.19-108.58,65.66-106.15,38.03,1.67,68.57,33.45,68.78,71.59,0,1.27.04,2.38-1.11,3.14h-30.36Z"/><polygon class="gensetcanopysmallilm-panel1x" points="747.46 450.36 747.46 589.62 746.41 590.66 716.05 590.66 716.05 450.36 747.46 450.36"/><path class="gensetcanopysmallilm-panel1x" d="M240.4,506.5c9.02,7.01,16.39,18.6,17.67,30.14,1.45,13.04.98,38.16.1,51.61-2.9,44.42-60.12,55.8-84.37,20.79-.98-1.41-3.61-4.9-2.59-6.51l8.7-4.85c10.37,23.19,43.41,29.31,59.96,9.29,8.69-10.51,8.26-22.94,7.1-35.85-7.87,8.09-16.77,14.04-28.35,15.27-44.84,4.75-68.17-51.62-33.08-79.85,15.07-12.12,39.73-11.8,54.86-.05ZM234.85,514.84c-29.27-20.99-67.37,8.49-51.99,41.87,15.66,33.99,68.34,21.07,64.11-20.83-.59-5.83-7.33-17.6-12.12-21.03Z"/><path class="gensetcanopysmallilm-panel1x" d="M630.89,543.9h-75.39c-1.02,15.46,12.1,30.71,27.58,32.1,15.78,1.41,27.7-5.58,35.7-18.78l9.31,3.44c-6.1,14.64-20.32,24.35-36.04,25.73-45.88,4.02-66.01-53.87-30.5-80.76,20.05-15.18,52.92-8.62,64.36,14.28.84,1.69,4.97,12.7,4.97,13.87v10.12ZM556.2,534.12h59.68c.34,0,3.28-.53,3.06-1.65-2.4-12.63-14.75-23.23-27.46-24.2-10.07-.77-15.64.45-23.63,6.44-6.06,4.55-10.74,11.86-11.65,19.41Z"/><path class="gensetcanopysmallilm-panel1x" d="M286.07,543.9c-.74,5.82.77,10.09,3.36,15.14,12.22,23.82,48.25,22.15,59.21-1.93l10.03,3.56c-14.88,33.56-63.03,35.02-79.7,1.86-12.62-25.11.45-56.9,28.04-63.65,29.81-7.3,55.96,14.62,54.45,45.03h-75.39ZM286.76,534.12h61.08c.1,0,1.71-.73,1.74-1.11-5.89-27.09-41.47-34.08-57.81-11.68-1.28,1.75-6.52,11.27-5.01,12.79Z"/><path class="gensetcanopysmallilm-panel1x" d="M441.72,585.78v-53.4c0-6.07-6.47-15.19-11.23-18.79-12.41-9.38-31.17-5.45-38.7,7.94-8.12,14.43-1.76,44.65-3.78,61.83-.12,1.02-.09,1.79-1.08,2.41h-10.12v-54.79c0-1.99,2.52-8.97,3.48-11.18,14.62-33.7,66.03-27.69,71.79,9.9,1.78,11.65,2.23,41.94.85,53.67-.12,1.02-.09,1.79-1.08,2.41h-10.12Z"/><path class="gensetcanopysmallilm-panel1x" d="M477.2,563.57c6.23,13.25,32.28,17.59,40.91,5.4,2.91-4.11,2.48-10.6-.97-14.29-9.88-10.57-39.57-7.73-45.44-25.06-10.73-31.72,37.73-42.42,54.84-19.94,4.46,5.85-2.75,6.05-6.3,9.67-5.67-7.92-13.79-11.95-23.72-11.04-9.31.85-19.88,9.68-12.92,19.18,9.08,12.38,45.01,7.51,47.45,31.42,2.93,28.65-34.83,33.99-53.69,20.88-1.93-1.34-10.61-8.57-9.52-10.75,1.53-1.63,7.29-6.67,9.34-5.47Z"/><path class="gensetcanopysmallilm-panel1x" d="M861.5,531.77c16.5,17.35,33.56,34.18,49.94,51.66l-18.55,18.29-55.31-57.62c-.33-.87.14-1.33.58-1.98,3.61-5.36,13.01-10.88,17.24-16.32,1.45-.26,5,4.81,6.11,5.97Z"/><path class="gensetcanopysmallilm-panel1x" d="M658.46,465.02c.54.17,1.06,1.14,1.08,1.76l-.39,32.44c1.42,2.92,9.1.72,11.84.66,3.51-.08,6.95,0,10.39.71,1.62,3.31,1.31,7.02.44,10.47-7.37-1.26-14.8.7-22.31.02-.11,2.42.18,4.9,0,7.33-.87,11.56-2.09,31.09-.38,42.27,2.16,14.08,12.48,18.41,25.07,12.65,1.87.35,3.45,6.69,3.82,8.54-11.95,8.34-29.81,5.52-36.56-7.94-1.22-2.42-3.81-10.53-3.81-12.94v-95.98h10.82Z"/></g><path class="gensetcanopysmallild" d="M-614.88 184.1 L952.63 1089.1"/><path class="gensetcanopysmallilp gensetcanopysmallilm-vent2" d="M1493.72 660.6 L1026.41 930.4 L1026.41 397.2 L1493.72 127.4 Z"/><path class="gensetcanopysmallild gensetcanopysmallilm-blackst2x" d="M1479.7 652.7 L1040.43 906.31 L1040.43 882.85 L1479.7 629.24 Z"/><path class="gensetcanopysmallild gensetcanopysmallilm-blackst2x" d="M1479.7 599.38 L1040.43 852.99 L1040.43 829.53 L1479.7 575.92 Z"/><path class="gensetcanopysmallild gensetcanopysmallilm-blackst2x" d="M1479.7 546.06 L1040.43 799.67 L1040.43 776.21 L1479.7 522.6 Z"/><path class="gensetcanopysmallild gensetcanopysmallilm-blackst2x" d="M1479.7 492.74 L1040.43 746.35 L1040.43 722.89 L1479.7 469.28 Z"/><path class="gensetcanopysmallild gensetcanopysmallilm-blackst2x" d="M1479.7 439.42 L1040.43 693.03 L1040.43 669.57 L1479.7 415.96 Z"/><path class="gensetcanopysmallild gensetcanopysmallilm-blackst2x" d="M1479.7 386.1 L1040.43 639.71 L1040.43 616.25 L1479.7 362.64 Z"/><path class="gensetcanopysmallild gensetcanopysmallilm-blackst2x" d="M1479.7 332.78 L1040.43 586.39 L1040.43 562.93 L1479.7 309.32 Z"/><path class="gensetcanopysmallild gensetcanopysmallilm-blackst2x" d="M1479.7 279.46 L1040.43 533.07 L1040.43 509.61 L1479.7 256 Z"/><path class="gensetcanopysmallild gensetcanopysmallilm-blackst2x" d="M1479.7 226.14 L1040.43 479.75 L1040.43 456.29 L1479.7 202.68 Z"/><path class="gensetcanopysmallild gensetcanopysmallilm-blackst2x" d="M1479.7 172.82 L1040.43 426.43 L1040.43 402.97 L1479.7 149.36 Z"/><path class="gensetcanopysmallilo gensetcanopysmallilm-canopy0" d="M0 -1015 L1515.54 -140 L952.63 185 L-562.92 -690 Z"/><path class="gensetcanopysmallilo gensetcanopysmallilm-canopy2" d="M1515.54 -70 L952.63 255 L952.63 185 L1515.54 -140 Z"/><path class="gensetcanopysmallilo gensetcanopysmallilm-canopy1" d="M-562.92 -620 L952.63 255 L952.63 185 L-562.92 -690 Z"/><path class="gensetcanopysmallild" d="M9.96 -950.75 L1404.26 -145.75 L942.67 120.75 L-451.63 -684.25 Z"/><path class="gensetcanopysmallilp gensetcanopysmallilm-blackst1" d="M1081.15 -203.4 L1072.91 -199.23 L1063.8 -195.71 L1053.97 -192.92 L1043.59 -190.88 L1032.84 -189.65 L1021.91 -189.23 L1010.98 -189.65 L1000.23 -190.88 L989.85 -192.92 L980.02 -195.71 L970.91 -199.23 L962.67 -203.4 L955.45 -208.16 L949.36 -213.42 L944.51 -219.09 L940.99 -225.08 L938.85 -231.29 L938.14 -237.6 L938.85 -243.91 L940.99 -250.12 L944.51 -256.11 L949.36 -261.78 L955.45 -267.04 L962.67 -271.8 L962.67 -134.2 L955.45 -129.44 L949.36 -124.18 L944.51 -118.51 L940.99 -112.52 L938.85 -106.31 L938.14 -100 L938.85 -93.69 L940.99 -87.48 L944.51 -81.49 L949.36 -75.82 L955.45 -70.56 L962.67 -65.8 L970.91 -61.63 L980.02 -58.11 L989.85 -55.32 L1000.23 -53.28 L1010.98 -52.05 L1021.91 -51.63 L1032.84 -52.05 L1043.59 -53.28 L1053.97 -55.32 L1063.8 -58.11 L1072.91 -61.63 L1081.15 -65.8 Z"/><path class="gensetcanopysmallilp gensetcanopysmallilm-blackst0" d="M1081.15 -203.4 L1072.91 -199.23 L1063.8 -195.71 L1053.97 -192.92 L1043.59 -190.88 L1032.84 -189.65 L1021.91 -189.23 L1010.98 -189.65 L1000.23 -190.88 L989.85 -192.92 L980.02 -195.71 L970.91 -199.23 L962.67 -203.4 L955.45 -208.16 L949.36 -213.42 L944.51 -219.09 L940.99 -225.08 L938.85 -231.29 L938.14 -237.6 L938.85 -243.91 L940.99 -250.12 L944.51 -256.11 L949.36 -261.78 L955.45 -267.04 L962.67 -271.8 L970.91 -275.97 L980.02 -279.49 L989.85 -282.28 L1000.23 -284.32 L1010.98 -285.55 L1021.91 -285.97 L1032.84 -285.55 L1043.59 -284.32 L1053.97 -282.28 L1063.8 -279.49 L1072.91 -275.97 L1081.15 -271.8 L1088.37 -267.04 L1094.46 -261.78 L1099.31 -256.11 L1102.83 -250.12 L1104.97 -243.91 L1105.68 -237.6 L1104.97 -231.29 L1102.83 -225.08 L1099.31 -219.09 L1094.46 -213.42 L1088.37 -208.16 Z"/><path class="gensetcanopysmallild gensetcanopysmallilm-vent2x" d="M1058.64 -216.4 L1053.53 -213.81 L1047.88 -211.63 L1041.79 -209.9 L1035.35 -208.63 L1028.69 -207.87 L1021.91 -207.61 L1015.13 -207.87 L1008.47 -208.63 L1002.03 -209.9 L995.94 -211.63 L990.29 -213.81 L985.18 -216.4 L980.7 -219.35 L976.93 -222.61 L973.92 -226.12 L971.74 -229.84 L970.42 -233.69 L969.97 -237.6 L970.42 -241.51 L971.74 -245.36 L973.92 -249.08 L976.93 -252.59 L980.7 -255.85 L985.18 -258.8 L990.29 -261.39 L995.94 -263.57 L1002.03 -265.3 L1008.47 -266.57 L1015.13 -267.33 L1021.91 -267.59 L1028.69 -267.33 L1035.35 -266.57 L1041.79 -265.3 L1047.88 -263.57 L1053.53 -261.39 L1058.64 -258.8 L1063.12 -255.85 L1066.89 -252.59 L1069.9 -249.08 L1072.08 -245.36 L1073.4 -241.51 L1073.85 -237.6 L1073.4 -233.69 L1072.08 -229.84 L1069.9 -226.12 L1066.89 -222.61 L1063.12 -219.35 Z"/><path class="gensetcanopysmallilp gensetcanopysmallilm-blackst1" d="M54.56 -696.5 L54.28 -701.62 L53.44 -706.98 L52.05 -712.49 L50.15 -718.05 L47.76 -723.56 L44.92 -728.94 L41.68 -734.08 L38.11 -738.91 L34.24 -743.34 L30.17 -747.29 L25.95 -750.69 L21.65 -753.5 L17.36 -755.65 L13.13 -757.12 L9.06 -757.88 L5.2 -757.91 L1.62 -757.21 L-1.62 -755.81 L-4.46 -753.71 L-6.85 -750.95 L-8.75 -747.6 L-10.14 -743.69 L-10.98 -739.3 L-11.26 -734.5 L-10.98 -729.38 L-10.14 -724.02 L-8.75 -718.51 L-6.85 -712.95 L-4.46 -707.44 L-1.62 -702.06 L1.62 -696.92 L5.2 -692.09 L9.06 -687.66 L13.13 -683.71 L17.36 -680.31 L21.65 -677.5 L25.95 -675.35 L30.17 -673.88 L34.24 -673.12 L38.11 -673.09 L41.68 -673.79 L44.92 -675.19 L47.76 -677.29 L50.15 -680.05 L52.05 -683.4 L53.44 -687.31 L54.28 -691.7 Z"/><path class="gensetcanopysmallild gensetcanopysmallilm-ground1x" d="M37.45 -706.38 L37.31 -708.84 L36.91 -711.41 L36.24 -714.05 L35.33 -716.72 L34.18 -719.37 L32.82 -721.95 L31.27 -724.42 L29.55 -726.74 L27.7 -728.86 L25.74 -730.76 L23.71 -732.39 L21.65 -733.74 L19.59 -734.77 L17.56 -735.48 L15.61 -735.84 L13.75 -735.86 L12.03 -735.52 L10.48 -734.85 L9.12 -733.84 L7.97 -732.52 L7.06 -730.91 L6.39 -729.03 L5.99 -726.92 L5.85 -724.62 L5.99 -722.16 L6.39 -719.59 L7.06 -716.95 L7.97 -714.28 L9.12 -711.63 L10.48 -709.05 L12.03 -706.58 L13.75 -704.26 L15.61 -702.14 L17.56 -700.24 L19.59 -698.61 L21.65 -697.26 L23.71 -696.23 L25.74 -695.52 L27.7 -695.16 L29.55 -695.14 L31.27 -695.48 L32.82 -696.15 L34.18 -697.16 L35.33 -698.48 L36.24 -700.09 L36.91 -701.97 L37.31 -704.08 Z"/><path class="gensetcanopysmallilp gensetcanopysmallilm-blackst1" d="M448.6 -469 L448.32 -474.12 L447.48 -479.48 L446.1 -484.99 L444.19 -490.55 L441.8 -496.06 L438.96 -501.44 L435.73 -506.58 L432.15 -511.41 L428.29 -515.84 L424.21 -519.79 L419.99 -523.19 L415.69 -526 L411.4 -528.15 L407.17 -529.62 L403.1 -530.38 L399.24 -530.41 L395.66 -529.71 L392.42 -528.31 L389.58 -526.21 L387.19 -523.45 L385.29 -520.1 L383.9 -516.19 L383.06 -511.8 L382.78 -507 L383.06 -501.88 L383.9 -496.52 L385.29 -491.01 L387.19 -485.45 L389.58 -479.94 L392.42 -474.56 L395.66 -469.42 L399.24 -464.59 L403.1 -460.16 L407.17 -456.21 L411.4 -452.81 L415.69 -450 L419.99 -447.85 L424.21 -446.38 L428.29 -445.62 L432.15 -445.59 L435.73 -446.29 L438.96 -447.69 L441.8 -449.79 L444.19 -452.55 L446.1 -455.9 L447.48 -459.81 L448.32 -464.2 Z"/><path class="gensetcanopysmallild gensetcanopysmallilm-ground1x" d="M431.49 -478.88 L431.35 -481.34 L430.95 -483.91 L430.29 -486.55 L429.37 -489.22 L428.22 -491.87 L426.86 -494.45 L425.31 -496.92 L423.59 -499.24 L421.74 -501.36 L419.78 -503.26 L417.75 -504.89 L415.69 -506.24 L413.63 -507.27 L411.6 -507.98 L409.65 -508.34 L407.79 -508.36 L406.08 -508.02 L404.52 -507.35 L403.16 -506.34 L402.01 -505.02 L401.1 -503.41 L400.43 -501.53 L400.03 -499.42 L399.9 -497.12 L400.03 -494.66 L400.43 -492.09 L401.1 -489.45 L402.01 -486.78 L403.16 -484.13 L404.52 -481.55 L406.08 -479.08 L407.79 -476.76 L409.65 -474.64 L411.6 -472.74 L413.63 -471.11 L415.69 -469.76 L417.75 -468.73 L419.78 -468.02 L421.74 -467.66 L423.59 -467.64 L425.31 -467.98 L426.86 -468.65 L428.22 -469.66 L429.37 -470.98 L430.29 -472.59 L430.95 -474.47 L431.35 -476.58 Z"/><path class="gensetcanopysmallilp gensetcanopysmallilm-canopy0" d="M893.39 -330.2 L887.9 -327.42 L881.83 -325.08 L875.27 -323.21 L868.36 -321.85 L861.19 -321.03 L853.9 -320.76 L846.61 -321.03 L839.45 -321.85 L832.53 -323.21 L825.98 -325.08 L819.9 -327.42 L814.41 -330.2 L809.59 -333.37 L805.53 -336.88 L802.3 -340.66 L799.96 -344.65 L798.53 -348.79 L798.05 -353 L798.53 -357.21 L799.96 -361.35 L802.3 -365.34 L805.53 -369.12 L809.59 -372.63 L814.41 -375.8 L819.9 -378.58 L825.98 -380.92 L832.53 -382.79 L839.45 -384.15 L846.61 -384.97 L853.9 -385.24 L861.19 -384.97 L868.36 -384.15 L875.27 -382.79 L881.83 -380.92 L887.9 -378.58 L893.39 -375.8 L898.21 -372.63 L902.27 -369.12 L905.5 -365.34 L907.85 -361.35 L909.27 -357.21 L909.75 -353 L909.27 -348.79 L907.85 -344.65 L905.5 -340.66 L902.27 -336.88 L898.21 -333.37 Z"/><path class="gensetcanopysmallild gensetcanopysmallilm-vent0x" d="M875.29 -340.65 L872.32 -339.14 L869.03 -337.87 L865.48 -336.86 L861.73 -336.13 L857.85 -335.68 L853.9 -335.53 L849.95 -335.68 L846.07 -336.13 L842.32 -336.86 L838.78 -337.87 L835.49 -339.14 L832.51 -340.65 L829.9 -342.37 L827.7 -344.27 L825.95 -346.32 L824.68 -348.48 L823.91 -350.72 L823.65 -353 L823.91 -355.28 L824.68 -357.52 L825.95 -359.68 L827.7 -361.73 L829.9 -363.63 L832.51 -365.35 L835.49 -366.86 L838.78 -368.13 L842.32 -369.14 L846.07 -369.87 L849.95 -370.32 L853.9 -370.47 L857.85 -370.32 L861.73 -369.87 L865.48 -369.14 L869.03 -368.13 L872.32 -366.86 L875.29 -365.35 L877.9 -363.63 L880.1 -361.73 L881.85 -359.68 L883.12 -357.52 L883.89 -355.28 L884.15 -353 L883.89 -350.72 L883.12 -348.48 L881.85 -346.32 L880.1 -344.27 L877.9 -342.37 Z"/></svg>
